<?xml version="1.0" standalone="no"?><!DOCTYPE svg PUBLIC "-//W3C//DTD SVG 1.1//EN" "http://www.w3.org/Graphics/SVG/1.1/DTD/svg11.dtd"><svg t="1587215242925" class="icon" viewBox="0 0 1026 1024" version="1.1" xmlns="http://www.w3.org/2000/svg" p-id="5371" xmlns:xlink="http://www.w3.org/1999/xlink" width="200.390625" height="200"><defs><style type="text/css"></style></defs><path d="M5.53547 564.212c-5.738 21.419 3.193 42.418 19.971 46.915l850.734 294.215c16.777 4.486 35.02-9.232 40.76-30.645l96.219-359.125c5.74-21.42-3.199-42.411-19.971-46.908L125.94147 236.273c-16.768-4.488-35.002 9.215-40.742 30.633L5.53547 564.212z" fill="#FCF4E4" p-id="5372"></path><path d="M1.73647 571.127c-5.738 21.41 3.211 42.412 19.98 46.9l850.734 294.219c16.76 4.49 35.012-9.23 40.75-30.65l15.193-56.703c-8.225 13.774-22.262 21.429-35.395 17.912L42.25747 548.601c-16.768-4.497-27.523-25.976-21.783-47.41L1.73647 571.127z" fill="#B48E72" p-id="5373"></path><path d="M40.98247 430.111c-5.314 21.52 4.086 42.171 21 46.115l851.807 296.469c16.914 3.944 34.926-10.314 40.232-31.846l14.051-56.998c-7.961 13.992-21.887 22.072-35.129 18.984L81.13647 406.374c-16.914-3.942-28.148-25.013-22.832-46.542L40.98247 430.111z" fill="#C4DDCA" p-id="5374"></path><path d="M39.95847 547.434L891.49247 841.857c16.787 4.498 26.932 21.055 32.67-0.355l6.166-23.039c-5.74 21.418-24 35.148-40.785 30.652L38.01747 554.681c-16.787-4.495-25.729-25.507-19.988-46.925l1.939-7.248c-5.738 21.42 3.213 42.43 19.99 46.926z" fill="#FCF4E4" p-id="5375"></path><path d="M844.43947 154.121c5.006-0.135 9.701 1.084 13.746 5.02 8.43 8.242 12.271 22.738 17.348 34.251a60077.742 60077.742 0 0 0 31.494 71.448c24.229 54.879 50.494 109.204 72.365 165.806 4.889 12.681 10.373 23.786 16.479 35.432 14.385 27.361 14.402 68.557-22.236 58.464L100.44547 274.521c-20.127-5.578-19.838-18.973 0.652-29.928 21.133-2.451 42.252-4.889 63.383-7.375 51.594-6.115 103.211-12.078 154.803-17.955 64.906-7.382 129.811-14.921 194.723-22.713 60.238-7.221 120.51-14.443 180.713-20.822 41.313-4.367 83.625-6.889 124.947-15.901 8.079-1.761 16.818-5.468 24.773-5.706z" fill="#B48E72" p-id="5376"></path><path d="M852.79447 135.174c5.016-0.119 9.732 1.131 13.805 5.102 8.508 8.277 12.416 22.791 17.545 34.338a88478.919 88478.919 0 0 0 31.887 71.614c24.535 55.019 51.115 109.489 73.283 166.226 4.957 12.701 10.51 23.857 16.684 35.523 14.529 27.449 14.699 68.643-22.117 58.371l-877.73-254.506c-20.229-5.682-19.98-19.076 0.553-29.92 21.197-2.35 42.412-4.676 63.607-7.068 51.791-5.843 103.598-11.549 155.379-17.172 65.15-7.067 130.303-14.269 195.455-21.73 60.459-6.927 120.949-13.84 181.385-19.912 41.459-4.172 83.93-6.465 125.398-15.278 8.105-1.723 16.868-5.383 24.866-5.588z" fill="#A9D2B4" p-id="5377"></path><path d="M863.32047 110.908c5.043-0.102 9.785 1.16 13.891 5.137 8.551 8.337 12.502 22.918 17.682 34.508a58770.053 58770.053 0 0 0 32.123 71.958c24.715 55.273 51.508 110.009 73.848 166.999 4.998 12.761 10.584 23.968 16.811 35.687 14.631 27.584 14.861 68.948-22.168 58.575L112.95347 226.914c-20.336-5.733-20.107-19.188 0.521-30.049 21.307-2.322 42.615-4.623 63.941-6.988 52.045-5.796 104.105-11.438 156.15-17.002 65.475-6.992 130.959-14.137 196.443-21.529 60.756-6.838 121.564-13.721 182.295-19.715 41.672-4.123 84.365-6.372 126.037-15.143 8.144-1.728 16.943-5.389 24.98-5.58z" fill="#C4DDCA" p-id="5378"></path><path d="M97.97247 210.544c-0.867 5.903 4.123 11.184 15 14.249L995.51347 481.65c14.41 4.049 23.184 0.24 27.662-7.545-3.338 11.14-12.51 17.663-29.883 12.784l-882.545-256.86c-14.025-3.941-18.257-11.572-12.775-19.485z" fill="#FCF4E4" p-id="5379"></path><path d="M999.60347 427.895l-45.582-12.214c19.035 5.102 40.404 31.3 34.084 54.882L869.99747 911.59c19.051 5.104 39.594-9.876 45.912-33.461l106.729-398.308c6.32-23.583-3.984-46.825-23.035-51.926z" fill="#C4DDCA" p-id="5380"></path><path d="M729.91547 155.94c53.328 4.292 93.076 50.999 88.783 104.327-4.293 53.318-27.037 19.309-80.367 15.014-53.326-4.291-117.033 22.761-112.742-30.561 4.293-53.324 50.996-93.072 104.326-88.78z" fill="#FCF4E4" p-id="5381"></path><path d="M760.58147 261.988c-11.699-3.512-23.877 0.766-30.98 9.838 0.93 11.473 8.73 21.76 20.424 25.275 11.693 3.514 23.881-0.766 30.979-9.828-0.925-11.483-8.725-21.767-20.423-25.285z" fill="#7CBC85" p-id="5382"></path><path d="M779.37447 287.21l-48.255-14.499 0.119-0.398 48.25 14.5z" fill="#5C9D63" p-id="5383"></path><path d="M737.40847 274.533l-0.192-0.361 16.035-8.625 0.194 0.367z" fill="#5C9D63" p-id="5384"></path><path d="M737.52447 274.252l8.616 16.035-0.36 0.194-8.617-16.035zM750.96247 278.611l-0.201-0.363 13.545-7.291 0.197 0.365z" fill="#5C9D63" p-id="5385"></path><path d="M751.07147 278.337l7.283 13.542-0.364 0.196-7.283-13.542zM761.37447 281.738l-0.197-0.367 9.901-5.316 0.195 0.359z" fill="#5C9D63" p-id="5386"></path><path d="M761.41547 281.482l5.328 9.9-0.368 0.197-5.327-9.9z" fill="#5C9D63" p-id="5387"></path><path d="M703.96847 267.109c10.172-6.766 23.07-6.215 32.496 0.391 2.459 11.248-2.012 23.36-12.176 30.122-10.17 6.778-23.064 6.226-32.5-0.382-2.453-11.253 2.014-23.367 12.18-30.131z" fill="#84BE79" p-id="5388"></path><path d="M733.07647 268.19l0.243 0.358-38.158 25.783-0.242-0.358z" fill="#5C9D63" p-id="5389"></path><path d="M708.97247 268.233l18.772 3.764-0.086 0.43-18.772-3.764zM699.47547 277.073l15.85 3.185-0.085 0.426-15.85-3.185z" fill="#5C9D63" p-id="5390"></path><path d="M712.12647 296.52c-0.018 0-0.029 0-0.043-0.005a0.214 0.214 0 0 1-0.17-0.257l3.178-15.854c0.023-0.117 0.143-0.207 0.254-0.168 0.119 0.02 0.195 0.139 0.172 0.254l-3.178 15.855a0.217 0.217 0 0 1-0.213 0.175z" fill="#5C9D63" p-id="5391"></path></svg>